HIERARCHY
ROOT Hips
{
	OFFSET -0.179506 -22.333345 2.821913
	CHANNELS 6 Xposition Yposition Zposition Zrotation Yrotation Xrotation 
	JOINT LeftUpLeg
	{
		OFFSET 6.951974 -9.140623 -0.681533
		CHANNELS 3 Zrotation Yrotation Xrotation
		JOINT LeftLeg
		{
			OFFSET 3.427654 -37.519855 -0.449580
			CHANNELS 3 Zrotation Yrotation Xrotation
			JOINT LeftFoot
			{
				OFFSET -1.359570 -39.796059 -4.369333
				CHANNELS 3 Zrotation Yrotation Xrotation
				JOINT LeftToe
				{
					OFFSET 2.635814 -5.579078 11.928840
					CHANNELS 3 Zrotation Yrotation Xrotation
					End Site
					{
						OFFSET 0.000000 0.000000 0.000000
					}
				}
			}
		}
	}
	JOINT RightUpLeg
	{
		OFFSET -6.767048 -9.052170 -0.431982
		CHANNELS 3 Zrotation Yrotation Xrotation
		JOINT RightLeg
		{
			OFFSET -3.829005 -38.256897 -0.885003
			CHANNELS 3 Zrotation Yrotation Xrotation
			JOINT RightFoot
			{
				OFFSET 1.577377 -39.841461 -4.231180
				CHANNELS 3 Zrotation Yrotation Xrotation
				JOINT RightToe
				{
					OFFSET -2.537174 -4.814398 12.334795
					CHANNELS 3 Zrotation Yrotation Xrotation
					End Site
					{
						OFFSET 0.000000 0.000000 0.000000
					}
				}
			}
		}
	}
	JOINT Spine
	{
		OFFSET -0.253288 10.896323 -2.669631
		CHANNELS 3 Zrotation Yrotation Xrotation
		JOINT Spine1
		{
			OFFSET 0.548704 13.518043 0.109247
			CHANNELS 3 Zrotation Yrotation Xrotation
			JOINT Spine2
			{
				OFFSET 0.145701 5.292222 2.542457
				CHANNELS 3 Zrotation Yrotation Xrotation
				JOINT Neck
				{
					OFFSET -0.277840 21.387037 -4.285703
					CHANNELS 3 Zrotation Yrotation Xrotation
					JOINT Head
					{
						OFFSET 0.515184 6.496960 5.134897
						CHANNELS 3 Zrotation Yrotation Xrotation
						End Site
						{
							OFFSET 0.000000 0.000000 0.000000
						}
					}
				}
				JOINT LeftShoulder
				{
					OFFSET 7.884473 12.174932 -3.408961
					CHANNELS 3 Zrotation Yrotation Xrotation
					JOINT LeftArm
					{
						OFFSET 9.097692 3.046888 -0.886815
						CHANNELS 3 Zrotation Yrotation Xrotation
						JOINT LeftForeArm
						{
							OFFSET 25.961220 -1.277207 -2.745643
							CHANNELS 3 Zrotation Yrotation Xrotation
							JOINT LeftHand
							{
								OFFSET 24.923361 0.898606 -0.117091
								CHANNELS 3 Zrotation Yrotation Xrotation
								End Site
								{
									OFFSET 0.000000 0.000000 0.000000
								}
							}
						}
					}
				}
				JOINT RightShoulder
				{
					OFFSET -8.175920 11.883285 -3.861528
					CHANNELS 3 Zrotation Yrotation Xrotation
					JOINT RightArm
					{
						OFFSET -9.601238 3.255117 -0.914307
						CHANNELS 3 Zrotation Yrotation Xrotation
						JOINT RightForeArm
						{
							OFFSET -25.374195 -1.332924 -2.140099
							CHANNELS 3 Zrotation Yrotation Xrotation
							JOINT RightHand
							{
								OFFSET -25.529810 0.777228 -0.555919
								CHANNELS 3 Zrotation Yrotation Xrotation
								End Site
								{
									OFFSET 0.000000 0.000000 0.000000
								}
							}
						}
					}
				}
			}
		}
	}
}
MOTION
Frames: 12
Frame Time: 0.033333
29.582907 21.211351 92.242104 -34.694992 3.289618 88.509979 1.502465 -0.701540 22.287831 -2.178705 -18.215397 10.764467 -3.976723 10.823131 -8.469352 nan nan nan 2.935974 0.870438 -23.832581 5.273598 -8.724612 8.983281 3.033260 -9.347742 11.323311 nan nan nan -5.221963 -7.058978 1.865650 6.693095 -4.831725 7.992376 2.541742 -4.918021 -3.337735 2.357087 -3.359544 -0.340231 10.678187 -3.279056 -7.825733 -19.243648 -1.455023 1.615030 -60.835418 -21.722131 16.454064 14.093136 -28.510491 -24.922647 -9.219208 -19.057663 -12.615737 18.332371 -4.209732 -0.925369 61.609532 -5.737246 5.505376 -9.405272 23.879052 -10.063834 12.224160 11.116453 -13.747620 
28.813345 20.453466 92.290787 -34.905956 3.214072 88.403159 1.434580 -0.940062 21.574785 -3.020968 -17.808503 13.252721 -4.131320 10.823518 -7.818321 nan nan nan 2.818564 0.857911 -23.558992 5.395753 -8.826707 9.765368 3.038684 -9.253826 11.706285 nan nan nan -5.092255 -6.907974 1.859527 6.630048 -4.748855 7.764483 2.462206 -4.709266 -3.125247 2.216212 -3.294820 -0.317588 10.600177 -3.177804 -7.945250 -19.076665 -1.564542 1.720503 -61.294235 -21.108979 16.694564 13.546489 -27.711800 -23.977526 -8.351932 -18.745476 -13.017420 18.287705 -4.031322 -0.821376 61.531892 -5.712760 5.204629 -9.114478 24.199850 -10.229517 11.724923 11.107529 -13.822313 
28.066231 19.707012 92.340736 -35.112988 3.175520 88.371742 1.411740 -1.201579 20.692041 -3.900523 -17.379284 15.789359 -4.159073 10.830651 -6.951829 nan nan nan 2.672228 0.800633 -23.387265 5.748690 -8.859887 10.527374 2.732315 -9.115463 11.982266 nan nan nan -4.889083 -6.747178 1.842112 6.574773 -4.676026 7.528347 2.414126 -4.523234 -3.014944 2.031681 -3.368185 -0.273196 10.446361 -2.977735 -7.962013 -19.106177 -1.740222 1.947955 -61.628422 -20.521738 16.670930 13.226413 -26.811493 -23.405469 -8.781079 -18.176960 -12.975635 18.108221 -3.877382 -0.637174 61.581868 -5.502516 4.751561 -8.908866 24.418231 -10.356444 11.909793 10.642105 -13.558386 
27.319464 18.967615 92.405319 -35.501284 3.173048 88.296383 1.407266 -1.399145 19.811502 -4.774203 -16.780724 18.233443 -4.167718 10.570548 -5.411885 nan nan nan 2.546308 0.787204 -23.138580 6.355785 -8.765684 11.320689 2.315777 -8.689064 11.918817 nan nan nan -4.583225 -6.486236 1.888887 6.489086 -4.518622 7.408682 2.327726 -4.365161 -3.106690 1.886388 -3.502458 -0.143064 10.222946 -2.886170 -8.043345 -19.103807 -1.793304 2.085967 -62.014720 -19.908808 16.785317 12.855210 -25.738719 -23.004615 -9.599549 -17.983005 -13.343708 17.833230 -3.698949 -0.566852 61.686468 -5.206290 4.788693 -8.758252 24.135817 -10.390671 12.195738 10.552626 -13.677825 
26.561573 18.227102 92.459160 -35.962724 3.161907 88.134752 1.438382 -1.484118 18.987282 -5.517434 -16.032918 20.542387 -4.197999 10.166760 -3.265037 nan nan nan 2.563191 0.724663 -22.767680 6.858675 -8.565576 12.231422 1.838743 -8.176831 11.353001 nan nan nan -4.230892 -6.201865 1.958347 6.334137 -4.346955 7.300038 2.187986 -4.198867 -3.128289 1.729241 -3.518442 0.138803 9.993979 -2.828740 -8.288073 -18.851733 -1.737402 2.142877 -62.507763 -19.261854 16.970176 12.305426 -24.734880 -22.381284 -9.814771 -17.965897 -13.996388 17.464730 -3.544702 -0.505326 61.928185 -4.730443 5.049745 -8.568042 23.594880 -10.310673 12.047070 10.812353 -14.022257 
25.809319 17.500011 92.502129 -36.469827 3.155485 87.939980 1.508890 -1.518651 18.104208 -6.108382 -15.002769 22.833831 -4.198863 9.824619 -1.006263 nan nan nan 2.763814 0.730596 -22.348293 7.032876 -8.362658 13.147170 1.352991 -7.773029 10.569120 nan nan nan -3.918421 -5.944484 2.144208 6.156466 -4.170794 7.037556 2.120251 -3.988132 -3.047802 1.586719 -3.464413 0.388379 9.765871 -2.788278 -8.474287 -18.618893 -1.663519 2.192603 -63.026118 -18.557587 16.904644 11.955909 -23.816498 -21.876634 -9.930369 -17.674875 -13.969360 17.179462 -3.356529 -0.337795 62.042203 -4.300454 5.051053 -8.351510 23.483663 -10.330892 11.990737 11.060415 -14.021887 
25.068504 16.790134 92.549782 -37.034805 3.192275 87.689321 1.731493 -1.495286 17.148370 -6.736668 -13.778959 25.210552 -4.286420 9.507536 1.100386 nan nan nan 3.079715 0.801527 -21.832698 7.099420 -8.042520 13.957979 0.935560 -7.460709 9.820443 nan nan nan -3.610141 -5.660913 2.441840 5.997867 -3.985715 6.732532 2.114306 -3.748958 -2.916286 1.433746 -3.343410 0.655361 9.572185 -2.678331 -8.785002 -18.527042 -1.682623 2.156138 -63.450596 -17.779317 16.840573 11.636739 -22.847380 -21.266034 -9.820826 -17.554727 -14.154715 16.910305 -3.102992 -0.311822 61.947766 -4.040799 5.029813 -7.832495 23.648126 -10.072329 11.738547 11.260688 -14.005946 
24.350368 16.123180 92.595901 -37.560106 3.230187 87.538185 2.037054 -1.492556 15.872016 -7.410461 -12.503054 27.737229 -4.429342 9.140478 3.082187 nan nan nan 3.386653 0.835713 -21.467340 7.133709 -7.679817 14.827728 0.635355 -7.162492 9.088166 nan nan nan -3.330270 -5.336815 2.676387 5.860379 -3.815095 6.395650 2.092424 -3.564824 -2.704364 1.357331 -3.291902 0.721918 9.368917 -2.644604 -8.995383 -18.433830 -1.668245 1.970357 -63.869837 -16.946230 16.935328 11.369454 -21.925911 -20.442484 -9.812637 -17.422770 -14.507977 16.819383 -2.857366 -0.445063 61.685446 -3.793113 5.176877 -7.380486 23.781633 -9.849976 11.637844 11.378650 -14.073420 
23.659981 15.481846 92.662453 -38.134522 3.316613 87.432979 2.359558 -1.498058 14.442525 -7.876148 -11.122177 30.162382 -4.586484 8.847665 5.243318 nan nan nan 3.710306 0.997878 -21.077893 7.148217 -7.345788 15.557577 0.526457 -6.906013 8.389606 nan nan nan -2.987774 -5.013623 2.807148 5.737311 -3.669554 6.097373 2.069625 -3.370230 -2.430217 1.197820 -3.194397 0.755067 9.188632 -2.575626 -9.167348 -18.452647 -1.690931 1.853109 -64.144468 -16.055639 16.886528 11.119985 -21.221970 -19.791992 -9.714201 -17.266338 -14.957364 16.839101 -2.553712 -0.505126 61.413036 -3.470144 5.228417 -7.164758 24.006428 -9.881329 11.250555 11.510929 -14.007601 
22.979582 14.853127 92.753639 -38.651745 3.423478 87.395164 2.693209 -1.486480 12.831723 -8.075968 -9.703589 32.513144 -4.752221 8.655136 7.753801 nan nan nan 4.010821 1.243730 -20.600796 7.177639 -7.210043 15.985920 0.489413 -6.675325 7.724707 nan nan nan -2.598630 -4.703416 2.974989 5.612707 -3.549137 5.767684 2.047273 -3.172021 -2.323052 0.975008 -3.200365 0.811832 9.023818 -2.412271 -9.152136 -18.677454 -1.640457 1.811545 -64.221151 -15.190094 16.699832 10.754631 -20.532841 -19.327360 -9.766342 -17.410055 -15.501779 16.908302 -2.346784 -0.539911 61.121121 -3.079453 5.143459 -6.949209 24.123660 -10.027599 10.991299 11.744635 -13.572511 
22.280884 14.216619 92.863113 -39.037966 3.542891 87.312399 3.081428 -1.579261 11.309113 -8.208839 -8.355226 34.669567 -4.936693 8.632313 10.157831 nan nan nan 4.288881 1.386792 -19.944344 7.232531 -7.153581 16.251061 0.458864 -6.407058 7.034458 nan nan nan -2.272472 -4.369647 3.034544 5.507274 -3.520563 5.629001 2.052609 -2.988825 -2.209242 0.804589 -3.264912 0.861929 8.871315 -2.232376 -9.165688 -18.899976 -1.557092 1.787353 -64.320950 -14.356365 16.489257 10.555971 -19.986370 -18.833297 -9.847253 -17.286332 -15.714269 17.043012 -2.147049 -0.549774 60.693632 -2.608863 5.047789 -6.577138 24.249957 -10.138183 10.918867 11.796770 -13.079813 
21.591084 13.603142 92.987755 -39.360681 3.723312 87.284640 3.567622 -1.748314 9.726149 -8.588144 -7.277435 36.823601 -5.093542 8.707139 11.373264 nan nan nan 4.609508 1.490600 -19.171837 7.335460 -6.996661 16.186517 0.410527 -6.206235 6.342580 nan nan nan -1.933572 -4.027290 3.023899 5.468118 -3.521340 5.552969 2.052995 -2.868692 -2.090905 0.754755 -3.315993 0.697406 8.608511 -2.183713 -9.003889 -18.981495 -1.401269 1.759595 -64.645982 -13.574203 16.341711 10.549465 -19.358348 -18.355262 -10.166227 -16.934260 -15.813423 17.119100 -1.965313 -0.617731 60.307654 -2.136375 5.045336 -6.209652 24.476705 -10.146408 11.069424 11.638583 -12.786035 
